<mxfile>
    <diagram id="6gor6Gizo_hNwVQ5l_cv" name="Page-2">
        <mxGraphModel dx="919" dy="771" grid="1" gridSize="10" guides="1" tooltips="1" connect="1" arrows="1" fold="1" page="1" pageScale="1" pageWidth="827" pageHeight="1169" math="0" shadow="0">
            <root>
                <mxCell id="BbaP-tKxJx1B0BoW0JB0-0"/>
                <mxCell id="BbaP-tKxJx1B0BoW0JB0-1" parent="BbaP-tKxJx1B0BoW0JB0-0"/>
                <mxCell id="OFbiqMm2XCREDaM9KTGe-0" value="Restaurant" style="swimlane;fontStyle=1;align=center;verticalAlign=top;childLayout=stackLayout;horizontal=1;startSize=26;horizontalStack=0;resizeParent=1;resizeParentMax=0;resizeLast=0;collapsible=1;marginBottom=0;" parent="BbaP-tKxJx1B0BoW0JB0-1" vertex="1">
                    <mxGeometry x="640" y="20" width="160" height="220" as="geometry"/>
                </mxCell>
                <mxCell id="OFbiqMm2XCREDaM9KTGe-1" value="#budget: float&#10;-is_open : bool&#10;-menu : dict" style="text;strokeColor=none;fillColor=none;align=left;verticalAlign=top;spacingLeft=4;spacingRight=4;overflow=hidden;rotatable=0;points=[[0,0.5],[1,0.5]];portConstraint=eastwest;" parent="OFbiqMm2XCREDaM9KTGe-0" vertex="1">
                    <mxGeometry y="26" width="160" height="64" as="geometry"/>
                </mxCell>
                <mxCell id="OFbiqMm2XCREDaM9KTGe-2" value="" style="line;strokeWidth=1;fillColor=none;align=left;verticalAlign=middle;spacingTop=-1;spacingLeft=3;spacingRight=3;rotatable=0;labelPosition=right;points=[];portConstraint=eastwest;" parent="OFbiqMm2XCREDaM9KTGe-0" vertex="1">
                    <mxGeometry y="90" width="160" height="8" as="geometry"/>
                </mxCell>
                <mxCell id="OFbiqMm2XCREDaM9KTGe-3" value="        &lt;&lt;constructor&gt;&gt;&#10;Restaurant()&#10;          &lt;&lt;interface&gt;&gt;&#10;#refresh_budget()&#10;+check_isopen() : bool&#10;+is free() : bool&#10;+check_staff(): dict" style="text;strokeColor=none;fillColor=none;align=left;verticalAlign=top;spacingLeft=4;spacingRight=4;overflow=hidden;rotatable=0;points=[[0,0.5],[1,0.5]];portConstraint=eastwest;" parent="OFbiqMm2XCREDaM9KTGe-0" vertex="1">
                    <mxGeometry y="98" width="160" height="122" as="geometry"/>
                </mxCell>
                <mxCell id="q5sV1c1yrpxeZgvzc1Eb-0" value="Hall" style="swimlane;fontStyle=1;align=center;verticalAlign=top;childLayout=stackLayout;horizontal=1;startSize=26;horizontalStack=0;resizeParent=1;resizeParentMax=0;resizeLast=0;collapsible=1;marginBottom=0;" parent="BbaP-tKxJx1B0BoW0JB0-1" vertex="1">
                    <mxGeometry x="60" y="110" width="190" height="90" as="geometry"/>
                </mxCell>
                <mxCell id="q5sV1c1yrpxeZgvzc1Eb-1" value="-free_tables : int" style="text;strokeColor=none;fillColor=none;align=left;verticalAlign=top;spacingLeft=4;spacingRight=4;overflow=hidden;rotatable=0;points=[[0,0.5],[1,0.5]];portConstraint=eastwest;" parent="q5sV1c1yrpxeZgvzc1Eb-0" vertex="1">
                    <mxGeometry y="26" width="190" height="26" as="geometry"/>
                </mxCell>
                <mxCell id="q5sV1c1yrpxeZgvzc1Eb-2" value="" style="line;strokeWidth=1;fillColor=none;align=left;verticalAlign=middle;spacingTop=-1;spacingLeft=3;spacingRight=3;rotatable=0;labelPosition=right;points=[];portConstraint=eastwest;" parent="q5sV1c1yrpxeZgvzc1Eb-0" vertex="1">
                    <mxGeometry y="52" width="190" height="8" as="geometry"/>
                </mxCell>
                <mxCell id="q5sV1c1yrpxeZgvzc1Eb-3" value="-check_ftables(ftable, cust) : bool" style="text;strokeColor=none;fillColor=none;align=left;verticalAlign=top;spacingLeft=4;spacingRight=4;overflow=hidden;rotatable=0;points=[[0,0.5],[1,0.5]];portConstraint=eastwest;" parent="q5sV1c1yrpxeZgvzc1Eb-0" vertex="1">
                    <mxGeometry y="60" width="190" height="30" as="geometry"/>
                </mxCell>
                <mxCell id="cPRT7750oen283sX_yZq-17" style="edgeStyle=orthogonalEdgeStyle;rounded=0;orthogonalLoop=1;jettySize=auto;html=1;entryX=0.5;entryY=1;entryDx=0;entryDy=0;entryPerimeter=0;endArrow=classic;endFill=1;strokeWidth=3;" parent="BbaP-tKxJx1B0BoW0JB0-1" source="E45xvI88Rf9QCkD0Gr8N-0" target="OFbiqMm2XCREDaM9KTGe-3" edge="1">
                    <mxGeometry relative="1" as="geometry"/>
                </mxCell>
                <mxCell id="E45xvI88Rf9QCkD0Gr8N-0" value="Staff" style="swimlane;fontStyle=1;align=center;verticalAlign=top;childLayout=stackLayout;horizontal=1;startSize=26;horizontalStack=0;resizeParent=1;resizeParentMax=0;resizeLast=0;collapsible=1;marginBottom=0;" parent="BbaP-tKxJx1B0BoW0JB0-1" vertex="1">
                    <mxGeometry x="640" y="310" width="160" height="180" as="geometry"/>
                </mxCell>
                <mxCell id="E45xvI88Rf9QCkD0Gr8N-1" value="#staff : dict&#10;+income : float&#10;+outcome : float" style="text;strokeColor=none;fillColor=none;align=left;verticalAlign=top;spacingLeft=4;spacingRight=4;overflow=hidden;rotatable=0;points=[[0,0.5],[1,0.5]];portConstraint=eastwest;" parent="E45xvI88Rf9QCkD0Gr8N-0" vertex="1">
                    <mxGeometry y="26" width="160" height="54" as="geometry"/>
                </mxCell>
                <mxCell id="E45xvI88Rf9QCkD0Gr8N-2" value="" style="line;strokeWidth=1;fillColor=none;align=left;verticalAlign=middle;spacingTop=-1;spacingLeft=3;spacingRight=3;rotatable=0;labelPosition=right;points=[];portConstraint=eastwest;" parent="E45xvI88Rf9QCkD0Gr8N-0" vertex="1">
                    <mxGeometry y="80" width="160" height="8" as="geometry"/>
                </mxCell>
                <mxCell id="E45xvI88Rf9QCkD0Gr8N-3" value="         &lt;&lt;constructor&gt;&gt;&#10;Staff()&#10;           &lt;&lt;interface&gt;&gt;&#10;---------------------------&#10;-get_salary(staff:dict) : float&#10;" style="text;strokeColor=none;fillColor=none;align=left;verticalAlign=top;spacingLeft=4;spacingRight=4;overflow=hidden;rotatable=0;points=[[0,0.5],[1,0.5]];portConstraint=eastwest;" parent="E45xvI88Rf9QCkD0Gr8N-0" vertex="1">
                    <mxGeometry y="88" width="160" height="92" as="geometry"/>
                </mxCell>
                <mxCell id="F0FiV0zrv4mOyR1bcbLa-1" style="edgeStyle=orthogonalEdgeStyle;rounded=0;orthogonalLoop=1;jettySize=auto;html=1;exitX=1;exitY=0.5;exitDx=0;exitDy=0;entryX=-0.006;entryY=0.254;entryDx=0;entryDy=0;entryPerimeter=0;endArrow=diamond;endFill=1;strokeWidth=3;" parent="BbaP-tKxJx1B0BoW0JB0-1" source="q5sV1c1yrpxeZgvzc1Eb-1" target="OFbiqMm2XCREDaM9KTGe-3" edge="1">
                    <mxGeometry relative="1" as="geometry"/>
                </mxCell>
                <mxCell id="cPRT7750oen283sX_yZq-20" style="edgeStyle=orthogonalEdgeStyle;rounded=0;orthogonalLoop=1;jettySize=auto;html=1;entryX=1.019;entryY=0.017;entryDx=0;entryDy=0;entryPerimeter=0;endArrow=block;endFill=0;strokeWidth=3;" parent="BbaP-tKxJx1B0BoW0JB0-1" source="F0FiV0zrv4mOyR1bcbLa-2" target="E45xvI88Rf9QCkD0Gr8N-3" edge="1">
                    <mxGeometry relative="1" as="geometry"/>
                </mxCell>
                <mxCell id="F0FiV0zrv4mOyR1bcbLa-2" value="ServiceStaff" style="swimlane;fontStyle=1;align=center;verticalAlign=top;childLayout=stackLayout;horizontal=1;startSize=26;horizontalStack=0;resizeParent=1;resizeParentMax=0;resizeLast=0;collapsible=1;marginBottom=0;" parent="BbaP-tKxJx1B0BoW0JB0-1" vertex="1">
                    <mxGeometry x="820" y="585" width="160" height="80" as="geometry"/>
                </mxCell>
                <mxCell id="F0FiV0zrv4mOyR1bcbLa-4" value="" style="line;strokeWidth=1;fillColor=none;align=left;verticalAlign=middle;spacingTop=-1;spacingLeft=3;spacingRight=3;rotatable=0;labelPosition=right;points=[];portConstraint=eastwest;" parent="F0FiV0zrv4mOyR1bcbLa-2" vertex="1">
                    <mxGeometry y="26" width="160" height="8" as="geometry"/>
                </mxCell>
                <mxCell id="F0FiV0zrv4mOyR1bcbLa-5" value="         &lt;&lt;constructor&gt;&gt;&#10;ServiceStaff()" style="text;strokeColor=none;fillColor=none;align=left;verticalAlign=top;spacingLeft=4;spacingRight=4;overflow=hidden;rotatable=0;points=[[0,0.5],[1,0.5]];portConstraint=eastwest;" parent="F0FiV0zrv4mOyR1bcbLa-2" vertex="1">
                    <mxGeometry y="34" width="160" height="46" as="geometry"/>
                </mxCell>
                <mxCell id="cPRT7750oen283sX_yZq-18" style="edgeStyle=orthogonalEdgeStyle;rounded=0;orthogonalLoop=1;jettySize=auto;html=1;exitX=0.5;exitY=0;exitDx=0;exitDy=0;entryX=-0.025;entryY=0.05;entryDx=0;entryDy=0;entryPerimeter=0;endArrow=block;endFill=0;strokeWidth=3;" parent="BbaP-tKxJx1B0BoW0JB0-1" source="F0FiV0zrv4mOyR1bcbLa-6" target="E45xvI88Rf9QCkD0Gr8N-3" edge="1">
                    <mxGeometry relative="1" as="geometry"/>
                </mxCell>
                <mxCell id="F0FiV0zrv4mOyR1bcbLa-6" value="Managmant" style="swimlane;fontStyle=1;align=center;verticalAlign=top;childLayout=stackLayout;horizontal=1;startSize=26;horizontalStack=0;resizeParent=1;resizeParentMax=0;resizeLast=0;collapsible=1;marginBottom=0;" parent="BbaP-tKxJx1B0BoW0JB0-1" vertex="1">
                    <mxGeometry x="110" y="580" width="160" height="96" as="geometry"/>
                </mxCell>
                <mxCell id="F0FiV0zrv4mOyR1bcbLa-8" value="" style="line;strokeWidth=1;fillColor=none;align=left;verticalAlign=middle;spacingTop=-1;spacingLeft=3;spacingRight=3;rotatable=0;labelPosition=right;points=[];portConstraint=eastwest;" parent="F0FiV0zrv4mOyR1bcbLa-6" vertex="1">
                    <mxGeometry y="26" width="160" height="8" as="geometry"/>
                </mxCell>
                <mxCell id="F0FiV0zrv4mOyR1bcbLa-9" value="         &lt;&lt;constructor&gt;&gt;&#10;Managmant()" style="text;strokeColor=none;fillColor=none;align=left;verticalAlign=top;spacingLeft=4;spacingRight=4;overflow=hidden;rotatable=0;points=[[0,0.5],[1,0.5]];portConstraint=eastwest;" parent="F0FiV0zrv4mOyR1bcbLa-6" vertex="1">
                    <mxGeometry y="34" width="160" height="62" as="geometry"/>
                </mxCell>
                <mxCell id="ytgpCwaP-Iej3yfqHq0n-1" style="edgeStyle=orthogonalEdgeStyle;rounded=0;orthogonalLoop=1;jettySize=auto;html=1;entryX=1;entryY=0.5;entryDx=0;entryDy=0;endArrow=block;endFill=0;strokeWidth=3;" parent="BbaP-tKxJx1B0BoW0JB0-1" source="cPRT7750oen283sX_yZq-0" target="F0FiV0zrv4mOyR1bcbLa-2" edge="1">
                    <mxGeometry relative="1" as="geometry">
                        <Array as="points">
                            <mxPoint x="1190" y="625"/>
                        </Array>
                    </mxGeometry>
                </mxCell>
                <mxCell id="cPRT7750oen283sX_yZq-0" value="Waiter" style="swimlane;fontStyle=1;align=center;verticalAlign=top;childLayout=stackLayout;horizontal=1;startSize=26;horizontalStack=0;resizeParent=1;resizeParentMax=0;resizeLast=0;collapsible=1;marginBottom=0;" parent="BbaP-tKxJx1B0BoW0JB0-1" vertex="1">
                    <mxGeometry x="1130" y="920" width="140" height="130" as="geometry"/>
                </mxCell>
                <mxCell id="cPRT7750oen283sX_yZq-1" value="+salary : int" style="text;strokeColor=none;fillColor=none;align=left;verticalAlign=top;spacingLeft=4;spacingRight=4;overflow=hidden;rotatable=0;points=[[0,0.5],[1,0.5]];portConstraint=eastwest;" parent="cPRT7750oen283sX_yZq-0" vertex="1">
                    <mxGeometry y="26" width="140" height="26" as="geometry"/>
                </mxCell>
                <mxCell id="cPRT7750oen283sX_yZq-2" value="" style="line;strokeWidth=1;fillColor=none;align=left;verticalAlign=middle;spacingTop=-1;spacingLeft=3;spacingRight=3;rotatable=0;labelPosition=right;points=[];portConstraint=eastwest;" parent="cPRT7750oen283sX_yZq-0" vertex="1">
                    <mxGeometry y="52" width="140" height="8" as="geometry"/>
                </mxCell>
                <mxCell id="cPRT7750oen283sX_yZq-3" value="+get_menu() :dict&#10;+pay_off() : float&#10;+get_order(order:dict)&#10;+bring_order()" style="text;strokeColor=none;fillColor=none;align=left;verticalAlign=top;spacingLeft=4;spacingRight=4;overflow=hidden;rotatable=0;points=[[0,0.5],[1,0.5]];portConstraint=eastwest;" parent="cPRT7750oen283sX_yZq-0" vertex="1">
                    <mxGeometry y="60" width="140" height="70" as="geometry"/>
                </mxCell>
                <mxCell id="cPRT7750oen283sX_yZq-22" style="edgeStyle=orthogonalEdgeStyle;rounded=0;orthogonalLoop=1;jettySize=auto;html=1;exitX=0.5;exitY=0;exitDx=0;exitDy=0;entryX=-0.012;entryY=0.058;entryDx=0;entryDy=0;entryPerimeter=0;endArrow=block;endFill=0;strokeWidth=3;" parent="BbaP-tKxJx1B0BoW0JB0-1" source="cPRT7750oen283sX_yZq-4" target="F0FiV0zrv4mOyR1bcbLa-5" edge="1">
                    <mxGeometry relative="1" as="geometry"/>
                </mxCell>
                <mxCell id="cPRT7750oen283sX_yZq-4" value="Barman" style="swimlane;fontStyle=1;align=center;verticalAlign=top;childLayout=stackLayout;horizontal=1;startSize=26;horizontalStack=0;resizeParent=1;resizeParentMax=0;resizeLast=0;collapsible=1;marginBottom=0;" parent="BbaP-tKxJx1B0BoW0JB0-1" vertex="1">
                    <mxGeometry x="420" y="910" width="160" height="140" as="geometry"/>
                </mxCell>
                <mxCell id="cPRT7750oen283sX_yZq-5" value="+salary : int" style="text;strokeColor=none;fillColor=none;align=left;verticalAlign=top;spacingLeft=4;spacingRight=4;overflow=hidden;rotatable=0;points=[[0,0.5],[1,0.5]];portConstraint=eastwest;" parent="cPRT7750oen283sX_yZq-4" vertex="1">
                    <mxGeometry y="26" width="160" height="26" as="geometry"/>
                </mxCell>
                <mxCell id="cPRT7750oen283sX_yZq-6" value="" style="line;strokeWidth=1;fillColor=none;align=left;verticalAlign=middle;spacingTop=-1;spacingLeft=3;spacingRight=3;rotatable=0;labelPosition=right;points=[];portConstraint=eastwest;" parent="cPRT7750oen283sX_yZq-4" vertex="1">
                    <mxGeometry y="52" width="160" height="8" as="geometry"/>
                </mxCell>
                <mxCell id="cPRT7750oen283sX_yZq-7" value="+pay_off() : float&#10;-get_product()&#10;+make_drink()&#10;+get_order(order:dict)&#10;+bring_order()" style="text;strokeColor=none;fillColor=none;align=left;verticalAlign=top;spacingLeft=4;spacingRight=4;overflow=hidden;rotatable=0;points=[[0,0.5],[1,0.5]];portConstraint=eastwest;" parent="cPRT7750oen283sX_yZq-4" vertex="1">
                    <mxGeometry y="60" width="160" height="80" as="geometry"/>
                </mxCell>
                <mxCell id="ytgpCwaP-Iej3yfqHq0n-0" style="edgeStyle=orthogonalEdgeStyle;rounded=0;orthogonalLoop=1;jettySize=auto;html=1;entryX=0.531;entryY=0.989;entryDx=0;entryDy=0;entryPerimeter=0;strokeWidth=3;endArrow=block;endFill=0;" parent="BbaP-tKxJx1B0BoW0JB0-1" source="cPRT7750oen283sX_yZq-8" target="F0FiV0zrv4mOyR1bcbLa-5" edge="1">
                    <mxGeometry relative="1" as="geometry"/>
                </mxCell>
                <mxCell id="cPRT7750oen283sX_yZq-8" value="Cook" style="swimlane;fontStyle=1;align=center;verticalAlign=top;childLayout=stackLayout;horizontal=1;startSize=26;horizontalStack=0;resizeParent=1;resizeParentMax=0;resizeLast=0;collapsible=1;marginBottom=0;" parent="BbaP-tKxJx1B0BoW0JB0-1" vertex="1">
                    <mxGeometry x="830" y="916" width="150" height="130" as="geometry"/>
                </mxCell>
                <mxCell id="cPRT7750oen283sX_yZq-9" value="+salary : int&#10;#ingridients : dict" style="text;strokeColor=none;fillColor=none;align=left;verticalAlign=top;spacingLeft=4;spacingRight=4;overflow=hidden;rotatable=0;points=[[0,0.5],[1,0.5]];portConstraint=eastwest;" parent="cPRT7750oen283sX_yZq-8" vertex="1">
                    <mxGeometry y="26" width="150" height="34" as="geometry"/>
                </mxCell>
                <mxCell id="cPRT7750oen283sX_yZq-10" value="" style="line;strokeWidth=1;fillColor=none;align=left;verticalAlign=middle;spacingTop=-1;spacingLeft=3;spacingRight=3;rotatable=0;labelPosition=right;points=[];portConstraint=eastwest;" parent="cPRT7750oen283sX_yZq-8" vertex="1">
                    <mxGeometry y="60" width="150" height="8" as="geometry"/>
                </mxCell>
                <mxCell id="cPRT7750oen283sX_yZq-11" value="+to_cook()&#10;-get_product(product) &#10;+get_order(order:dict)&#10;+bring_order()" style="text;strokeColor=none;fillColor=none;align=left;verticalAlign=top;spacingLeft=4;spacingRight=4;overflow=hidden;rotatable=0;points=[[0,0.5],[1,0.5]];portConstraint=eastwest;" parent="cPRT7750oen283sX_yZq-8" vertex="1">
                    <mxGeometry y="68" width="150" height="62" as="geometry"/>
                </mxCell>
                <mxCell id="cPRT7750oen283sX_yZq-21" style="edgeStyle=orthogonalEdgeStyle;rounded=0;orthogonalLoop=1;jettySize=auto;html=1;exitX=0.5;exitY=0;exitDx=0;exitDy=0;entryX=0.55;entryY=1;entryDx=0;entryDy=0;entryPerimeter=0;endArrow=block;endFill=0;strokeWidth=3;" parent="BbaP-tKxJx1B0BoW0JB0-1" source="cPRT7750oen283sX_yZq-12" target="F0FiV0zrv4mOyR1bcbLa-9" edge="1">
                    <mxGeometry relative="1" as="geometry">
                        <Array as="points">
                            <mxPoint x="198" y="920"/>
                        </Array>
                    </mxGeometry>
                </mxCell>
                <mxCell id="cPRT7750oen283sX_yZq-12" value="Accountent" style="swimlane;fontStyle=1;align=center;verticalAlign=top;childLayout=stackLayout;horizontal=1;startSize=26;horizontalStack=0;resizeParent=1;resizeParentMax=0;resizeLast=0;collapsible=1;marginBottom=0;" parent="BbaP-tKxJx1B0BoW0JB0-1" vertex="1">
                    <mxGeometry x="90" y="920" width="220" height="150" as="geometry"/>
                </mxCell>
                <mxCell id="cPRT7750oen283sX_yZq-13" value="#salary : int" style="text;strokeColor=none;fillColor=none;align=left;verticalAlign=top;spacingLeft=4;spacingRight=4;overflow=hidden;rotatable=0;points=[[0,0.5],[1,0.5]];portConstraint=eastwest;" parent="cPRT7750oen283sX_yZq-12" vertex="1">
                    <mxGeometry y="26" width="220" height="26" as="geometry"/>
                </mxCell>
                <mxCell id="cPRT7750oen283sX_yZq-14" value="" style="line;strokeWidth=1;fillColor=none;align=left;verticalAlign=middle;spacingTop=-1;spacingLeft=3;spacingRight=3;rotatable=0;labelPosition=right;points=[];portConstraint=eastwest;" parent="cPRT7750oen283sX_yZq-12" vertex="1">
                    <mxGeometry y="52" width="220" height="8" as="geometry"/>
                </mxCell>
                <mxCell id="cPRT7750oen283sX_yZq-15" value="-get_budget(budget,income, outcome,&#10;salary)&#10;+set_budget()" style="text;strokeColor=none;fillColor=none;align=left;verticalAlign=top;spacingLeft=4;spacingRight=4;overflow=hidden;rotatable=0;points=[[0,0.5],[1,0.5]];portConstraint=eastwest;" parent="cPRT7750oen283sX_yZq-12" vertex="1">
                    <mxGeometry y="60" width="220" height="90" as="geometry"/>
                </mxCell>
                <mxCell id="MWIslMGjIWDTWANbFhxI-10" style="edgeStyle=orthogonalEdgeStyle;rounded=0;orthogonalLoop=1;jettySize=auto;html=1;exitX=0.5;exitY=0;exitDx=0;exitDy=0;entryX=0.5;entryY=1.01;entryDx=0;entryDy=0;entryPerimeter=0;endArrow=diamond;endFill=1;strokeWidth=3;" parent="BbaP-tKxJx1B0BoW0JB0-1" source="MWIslMGjIWDTWANbFhxI-0" target="MWIslMGjIWDTWANbFhxI-6" edge="1">
                    <mxGeometry relative="1" as="geometry"/>
                </mxCell>
                <mxCell id="MWIslMGjIWDTWANbFhxI-0" value="Order" style="swimlane;fontStyle=1;align=center;verticalAlign=top;childLayout=stackLayout;horizontal=1;startSize=26;horizontalStack=0;resizeParent=1;resizeParentMax=0;resizeLast=0;collapsible=1;marginBottom=0;" parent="BbaP-tKxJx1B0BoW0JB0-1" vertex="1">
                    <mxGeometry x="1320" y="440" width="160" height="104" as="geometry"/>
                </mxCell>
                <mxCell id="MWIslMGjIWDTWANbFhxI-1" value="" style="line;strokeWidth=1;fillColor=none;align=left;verticalAlign=middle;spacingTop=-1;spacingLeft=3;spacingRight=3;rotatable=0;labelPosition=right;points=[];portConstraint=eastwest;" parent="MWIslMGjIWDTWANbFhxI-0" vertex="1">
                    <mxGeometry y="26" width="160" height="8" as="geometry"/>
                </mxCell>
                <mxCell id="MWIslMGjIWDTWANbFhxI-2" value="        &lt;&lt;constryctor&gt;&gt;&#10;Order()&#10;          &lt;&lt;interface&gt;&gt;&#10;+set_order()&#10;" style="text;strokeColor=none;fillColor=none;align=left;verticalAlign=top;spacingLeft=4;spacingRight=4;overflow=hidden;rotatable=0;points=[[0,0.5],[1,0.5]];portConstraint=eastwest;" parent="MWIslMGjIWDTWANbFhxI-0" vertex="1">
                    <mxGeometry y="34" width="160" height="70" as="geometry"/>
                </mxCell>
                <mxCell id="MWIslMGjIWDTWANbFhxI-3" value="Customer" style="swimlane;fontStyle=1;align=center;verticalAlign=top;childLayout=stackLayout;horizontal=1;startSize=26;horizontalStack=0;resizeParent=1;resizeParentMax=0;resizeLast=0;collapsible=1;marginBottom=0;" parent="BbaP-tKxJx1B0BoW0JB0-1" vertex="1">
                    <mxGeometry x="1320" y="130" width="160" height="160" as="geometry"/>
                </mxCell>
                <mxCell id="MWIslMGjIWDTWANbFhxI-4" value="-count : int" style="text;strokeColor=none;fillColor=none;align=left;verticalAlign=top;spacingLeft=4;spacingRight=4;overflow=hidden;rotatable=0;points=[[0,0.5],[1,0.5]];portConstraint=eastwest;" parent="MWIslMGjIWDTWANbFhxI-3" vertex="1">
                    <mxGeometry y="26" width="160" height="26" as="geometry"/>
                </mxCell>
                <mxCell id="MWIslMGjIWDTWANbFhxI-5" value="" style="line;strokeWidth=1;fillColor=none;align=left;verticalAlign=middle;spacingTop=-1;spacingLeft=3;spacingRight=3;rotatable=0;labelPosition=right;points=[];portConstraint=eastwest;" parent="MWIslMGjIWDTWANbFhxI-3" vertex="1">
                    <mxGeometry y="52" width="160" height="8" as="geometry"/>
                </mxCell>
                <mxCell id="MWIslMGjIWDTWANbFhxI-6" value="        &lt;&lt;constryctor&gt;&gt;&#10;Customer()&#10;          &lt;&lt;interface&gt;&gt;&#10;+is_delivery(): dict&#10;+pay_off() : float" style="text;strokeColor=none;fillColor=none;align=left;verticalAlign=top;spacingLeft=4;spacingRight=4;overflow=hidden;rotatable=0;points=[[0,0.5],[1,0.5]];portConstraint=eastwest;" parent="MWIslMGjIWDTWANbFhxI-3" vertex="1">
                    <mxGeometry y="60" width="160" height="100" as="geometry"/>
                </mxCell>
                <mxCell id="MWIslMGjIWDTWANbFhxI-9" style="edgeStyle=orthogonalEdgeStyle;rounded=0;orthogonalLoop=1;jettySize=auto;html=1;exitX=0;exitY=0.5;exitDx=0;exitDy=0;entryX=1.031;entryY=0.418;entryDx=0;entryDy=0;entryPerimeter=0;endArrow=classic;endFill=1;strokeWidth=3;" parent="BbaP-tKxJx1B0BoW0JB0-1" source="MWIslMGjIWDTWANbFhxI-4" target="OFbiqMm2XCREDaM9KTGe-3" edge="1">
                    <mxGeometry relative="1" as="geometry"/>
                </mxCell>
                <mxCell id="ghNvpLUf2YcqT1bmB8o8-0" value="Store" style="swimlane;fontStyle=1;align=center;verticalAlign=top;childLayout=stackLayout;horizontal=1;startSize=26;horizontalStack=0;resizeParent=1;resizeParentMax=0;resizeLast=0;collapsible=1;marginBottom=0;" parent="BbaP-tKxJx1B0BoW0JB0-1" vertex="1">
                    <mxGeometry x="620" y="730" width="160" height="100" as="geometry"/>
                </mxCell>
                <mxCell id="ghNvpLUf2YcqT1bmB8o8-1" value="+product : dict" style="text;strokeColor=none;fillColor=none;align=left;verticalAlign=top;spacingLeft=4;spacingRight=4;overflow=hidden;rotatable=0;points=[[0,0.5],[1,0.5]];portConstraint=eastwest;" parent="ghNvpLUf2YcqT1bmB8o8-0" vertex="1">
                    <mxGeometry y="26" width="160" height="26" as="geometry"/>
                </mxCell>
                <mxCell id="ghNvpLUf2YcqT1bmB8o8-2" value="" style="line;strokeWidth=1;fillColor=none;align=left;verticalAlign=middle;spacingTop=-1;spacingLeft=3;spacingRight=3;rotatable=0;labelPosition=right;points=[];portConstraint=eastwest;" parent="ghNvpLUf2YcqT1bmB8o8-0" vertex="1">
                    <mxGeometry y="52" width="160" height="8" as="geometry"/>
                </mxCell>
                <mxCell id="ghNvpLUf2YcqT1bmB8o8-3" value="+check_product(ingridients)" style="text;strokeColor=none;fillColor=none;align=left;verticalAlign=top;spacingLeft=4;spacingRight=4;overflow=hidden;rotatable=0;points=[[0,0.5],[1,0.5]];portConstraint=eastwest;" parent="ghNvpLUf2YcqT1bmB8o8-0" vertex="1">
                    <mxGeometry y="60" width="160" height="40" as="geometry"/>
                </mxCell>
                <mxCell id="EeC3pWsb2YfrjIFXwEv7-0" style="edgeStyle=orthogonalEdgeStyle;rounded=0;orthogonalLoop=1;jettySize=auto;html=1;entryX=0.5;entryY=1;entryDx=0;entryDy=0;endArrow=classic;endFill=1;strokeWidth=3;" parent="BbaP-tKxJx1B0BoW0JB0-1" source="cPRT7750oen283sX_yZq-3" target="cPRT7750oen283sX_yZq-4" edge="1">
                    <mxGeometry relative="1" as="geometry">
                        <Array as="points">
                            <mxPoint x="1210" y="1130"/>
                            <mxPoint x="500" y="1130"/>
                        </Array>
                    </mxGeometry>
                </mxCell>
                <mxCell id="EeC3pWsb2YfrjIFXwEv7-1" value="" style="endArrow=classic;html=1;strokeWidth=3;entryX=0.494;entryY=1.075;entryDx=0;entryDy=0;entryPerimeter=0;" parent="BbaP-tKxJx1B0BoW0JB0-1" target="cPRT7750oen283sX_yZq-11" edge="1">
                    <mxGeometry width="50" height="50" relative="1" as="geometry">
                        <mxPoint x="904" y="1130" as="sourcePoint"/>
                        <mxPoint x="930" y="1090" as="targetPoint"/>
                    </mxGeometry>
                </mxCell>
                <mxCell id="bxQA0z7y_XzHg5WCRuHO-0" style="edgeStyle=orthogonalEdgeStyle;rounded=0;orthogonalLoop=1;jettySize=auto;html=1;entryX=0.013;entryY=1;entryDx=0;entryDy=0;entryPerimeter=0;endArrow=classic;endFill=1;strokeWidth=3;dashed=1;" parent="BbaP-tKxJx1B0BoW0JB0-1" target="cPRT7750oen283sX_yZq-9" edge="1">
                    <mxGeometry relative="1" as="geometry">
                        <Array as="points">
                            <mxPoint x="690" y="976"/>
                        </Array>
                        <mxPoint x="690" y="860" as="sourcePoint"/>
                    </mxGeometry>
                </mxCell>
                <mxCell id="bxQA0z7y_XzHg5WCRuHO-2" value="" style="endArrow=classic;html=1;dashed=1;strokeWidth=3;entryX=1.025;entryY=0.167;entryDx=0;entryDy=0;entryPerimeter=0;exitX=0.431;exitY=1.125;exitDx=0;exitDy=0;exitPerimeter=0;" parent="BbaP-tKxJx1B0BoW0JB0-1" source="ghNvpLUf2YcqT1bmB8o8-3" target="cPRT7750oen283sX_yZq-7" edge="1">
                    <mxGeometry width="50" height="50" relative="1" as="geometry">
                        <mxPoint x="690" y="850" as="sourcePoint"/>
                        <mxPoint x="740" y="930" as="targetPoint"/>
                        <Array as="points">
                            <mxPoint x="690" y="980"/>
                        </Array>
                    </mxGeometry>
                </mxCell>
                <mxCell id="bxQA0z7y_XzHg5WCRuHO-3" style="edgeStyle=orthogonalEdgeStyle;rounded=0;orthogonalLoop=1;jettySize=auto;html=1;entryX=1.019;entryY=0.075;entryDx=0;entryDy=0;entryPerimeter=0;endArrow=classic;endFill=1;strokeWidth=3;" parent="BbaP-tKxJx1B0BoW0JB0-1" source="MWIslMGjIWDTWANbFhxI-2" target="cPRT7750oen283sX_yZq-3" edge="1">
                    <mxGeometry relative="1" as="geometry">
                        <Array as="points">
                            <mxPoint x="1520" y="509"/>
                            <mxPoint x="1520" y="985"/>
                        </Array>
                    </mxGeometry>
                </mxCell>
                <mxCell id="ytgpCwaP-Iej3yfqHq0n-2" value="Text" style="text;html=1;strokeColor=none;fillColor=none;align=center;verticalAlign=middle;whiteSpace=wrap;rounded=0;" parent="BbaP-tKxJx1B0BoW0JB0-1" vertex="1">
                    <mxGeometry x="640" y="470" width="40" height="20" as="geometry"/>
                </mxCell>
                <mxCell id="ytgpCwaP-Iej3yfqHq0n-3" value="1..*" style="text;html=1;strokeColor=none;fillColor=none;align=center;verticalAlign=middle;whiteSpace=wrap;rounded=0;" parent="BbaP-tKxJx1B0BoW0JB0-1" vertex="1">
                    <mxGeometry x="200" y="896" width="40" height="20" as="geometry"/>
                </mxCell>
                <mxCell id="ytgpCwaP-Iej3yfqHq0n-5" value="1" style="text;html=1;strokeColor=none;fillColor=none;align=center;verticalAlign=middle;whiteSpace=wrap;rounded=0;" parent="BbaP-tKxJx1B0BoW0JB0-1" vertex="1">
                    <mxGeometry x="590" y="130" width="40" height="20" as="geometry"/>
                </mxCell>
                <mxCell id="ytgpCwaP-Iej3yfqHq0n-9" value="1" style="text;html=1;strokeColor=none;fillColor=none;align=center;verticalAlign=middle;whiteSpace=wrap;rounded=0;" parent="BbaP-tKxJx1B0BoW0JB0-1" vertex="1">
                    <mxGeometry x="680" y="290" width="40" height="20" as="geometry"/>
                </mxCell>
                <mxCell id="ytgpCwaP-Iej3yfqHq0n-10" value="0..*" style="text;html=1;strokeColor=none;fillColor=none;align=center;verticalAlign=middle;whiteSpace=wrap;rounded=0;" parent="BbaP-tKxJx1B0BoW0JB0-1" vertex="1">
                    <mxGeometry x="1280" y="145" width="40" height="20" as="geometry"/>
                </mxCell>
                <mxCell id="ytgpCwaP-Iej3yfqHq0n-12" value="0..*" style="text;html=1;strokeColor=none;fillColor=none;align=center;verticalAlign=middle;whiteSpace=wrap;rounded=0;" parent="BbaP-tKxJx1B0BoW0JB0-1" vertex="1">
                    <mxGeometry x="1360" y="420" width="40" height="20" as="geometry"/>
                </mxCell>
                <mxCell id="ytgpCwaP-Iej3yfqHq0n-13" value="1" style="text;html=1;strokeColor=none;fillColor=none;align=center;verticalAlign=middle;whiteSpace=wrap;rounded=0;" parent="BbaP-tKxJx1B0BoW0JB0-1" vertex="1">
                    <mxGeometry x="860" y="565" width="40" height="20" as="geometry"/>
                </mxCell>
                <mxCell id="ytgpCwaP-Iej3yfqHq0n-14" value="1" style="text;html=1;strokeColor=none;fillColor=none;align=center;verticalAlign=middle;whiteSpace=wrap;rounded=0;" parent="BbaP-tKxJx1B0BoW0JB0-1" vertex="1">
                    <mxGeometry x="190" y="560" width="40" height="20" as="geometry"/>
                </mxCell>
                <mxCell id="ytgpCwaP-Iej3yfqHq0n-15" value="0..*" style="text;html=1;strokeColor=none;fillColor=none;align=center;verticalAlign=middle;whiteSpace=wrap;rounded=0;" parent="BbaP-tKxJx1B0BoW0JB0-1" vertex="1">
                    <mxGeometry x="460" y="890" width="40" height="20" as="geometry"/>
                </mxCell>
                <mxCell id="ytgpCwaP-Iej3yfqHq0n-16" value="1..*" style="text;html=1;strokeColor=none;fillColor=none;align=center;verticalAlign=middle;whiteSpace=wrap;rounded=0;" parent="BbaP-tKxJx1B0BoW0JB0-1" vertex="1">
                    <mxGeometry x="860" y="896" width="40" height="20" as="geometry"/>
                </mxCell>
                <mxCell id="ytgpCwaP-Iej3yfqHq0n-17" value="1..*" style="text;html=1;strokeColor=none;fillColor=none;align=center;verticalAlign=middle;whiteSpace=wrap;rounded=0;" parent="BbaP-tKxJx1B0BoW0JB0-1" vertex="1">
                    <mxGeometry x="1150" y="900" width="40" height="20" as="geometry"/>
                </mxCell>
                <mxCell id="ytgpCwaP-Iej3yfqHq0n-20" value="1" style="text;html=1;strokeColor=none;fillColor=none;align=center;verticalAlign=middle;whiteSpace=wrap;rounded=0;" parent="BbaP-tKxJx1B0BoW0JB0-1" vertex="1">
                    <mxGeometry x="690" y="840" width="40" height="20" as="geometry"/>
                </mxCell>
                <mxCell id="ytgpCwaP-Iej3yfqHq0n-22" value="0..*" style="text;html=1;strokeColor=none;fillColor=none;align=center;verticalAlign=middle;whiteSpace=wrap;rounded=0;" parent="BbaP-tKxJx1B0BoW0JB0-1" vertex="1">
                    <mxGeometry x="1500" y="482" width="40" height="20" as="geometry"/>
                </mxCell>
                <mxCell id="ytgpCwaP-Iej3yfqHq0n-23" value="1..*" style="text;html=1;strokeColor=none;fillColor=none;align=center;verticalAlign=middle;whiteSpace=wrap;rounded=0;" parent="BbaP-tKxJx1B0BoW0JB0-1" vertex="1">
                    <mxGeometry x="250" y="130" width="40" height="20" as="geometry"/>
                </mxCell>
            </root>
        </mxGraphModel>
    </diagram>
</mxfile>